solid OpenSCAD_Model
  facet normal -1.000000 0.000000 0.000000
    outer loop
      vertex 0.000000 37.000000 -2.000000
      vertex 0.000000 37.000000 18.000000
      vertex 0.000000 58.000000 -2.000000
    endloop
  endfacet
  facet normal -1.000000 0.000000 0.000000
    outer loop
      vertex 0.000000 58.000000 -2.000000
      vertex 0.000000 37.000000 18.000000
      vertex 0.000000 58.000000 18.000000
    endloop
  endfacet
  facet normal 0.000000 -1.000000 0.000000
    outer loop
      vertex 16.000000 37.000000 2.000000
      vertex 0.000000 37.000000 -2.000000
      vertex 32.666667 37.000000 -2.000000
    endloop
  endfacet
  facet normal 0.000000 -1.000000 0.000000
    outer loop
      vertex 30.000000 37.000000 8.426968
      vertex 16.000000 37.000000 8.426968
      vertex 32.666667 37.000000 -2.000000
    endloop
  endfacet
  facet normal 0.000000 -1.000000 0.000000
    outer loop
      vertex 32.666667 37.000000 18.000000
      vertex 30.000000 37.000000 15.573032
      vertex 32.666667 37.000000 -2.000000
    endloop
  endfacet
  facet normal 0.000000 -1.000000 0.000000
    outer loop
      vertex 32.666667 37.000000 18.000000
      vertex 16.000000 37.000000 18.000000
      vertex 30.000000 37.000000 15.573032
    endloop
  endfacet
  facet normal 0.000000 -1.000000 0.000000
    outer loop
      vertex 30.000000 37.000000 15.573032
      vertex 30.000000 37.000000 8.426968
      vertex 32.666667 37.000000 -2.000000
    endloop
  endfacet
  facet normal 0.000000 -1.000000 0.000000
    outer loop
      vertex 2.000000 37.000000 2.000000
      vertex 0.000000 37.000000 -2.000000
      vertex 16.000000 37.000000 2.000000
    endloop
  endfacet
  facet normal 0.000000 -1.000000 0.000000
    outer loop
      vertex 0.000000 37.000000 18.000000
      vertex 0.000000 37.000000 -2.000000
      vertex 2.000000 37.000000 2.000000
    endloop
  endfacet
  facet normal 0.000000 -1.000000 0.000000
    outer loop
      vertex 16.000000 37.000000 8.426968
      vertex 16.000000 37.000000 2.000000
      vertex 32.666667 37.000000 -2.000000
    endloop
  endfacet
  facet normal 0.000000 -1.000000 0.000000
    outer loop
      vertex 16.000000 37.000000 15.573032
      vertex 30.000000 37.000000 15.573032
      vertex 16.000000 37.000000 18.000000
    endloop
  endfacet
  facet normal 0.000000 -1.000000 0.000000
    outer loop
      vertex 2.000000 37.000000 2.000000
      vertex 2.000000 37.000000 18.000000
      vertex 0.000000 37.000000 18.000000
    endloop
  endfacet
  facet normal 0.000000 0.000000 -1.000000
    outer loop
      vertex 0.000000 37.000000 -2.000000
      vertex 0.000000 58.000000 -2.000000
      vertex 32.666667 37.000000 -2.000000
    endloop
  endfacet
  facet normal 0.000000 0.000000 -1.000000
    outer loop
      vertex 32.666667 37.000000 -2.000000
      vertex 0.000000 58.000000 -2.000000
      vertex 32.666667 58.000000 -2.000000
    endloop
  endfacet
  facet normal 0.000000 1.000000 0.000000
    outer loop
      vertex 0.000000 58.000000 -2.000000
      vertex 0.000000 58.000000 18.000000
      vertex 2.000000 58.000000 -0.500000
    endloop
  endfacet
  facet normal 0.000000 1.000000 0.000000
    outer loop
      vertex 0.000000 58.000000 -2.000000
      vertex 2.000000 58.000000 -0.500000
      vertex 32.666667 58.000000 -2.000000
    endloop
  endfacet
  facet normal 0.000000 1.000000 0.000000
    outer loop
      vertex 16.000000 58.000000 18.000000
      vertex 32.666667 58.000000 -2.000000
      vertex 16.000000 58.000000 -0.500000
    endloop
  endfacet
  facet normal 0.000000 1.000000 0.000000
    outer loop
      vertex 2.000000 58.000000 -0.500000
      vertex 16.000000 58.000000 -0.500000
      vertex 32.666667 58.000000 -2.000000
    endloop
  endfacet
  facet normal 0.000000 1.000000 0.000000
    outer loop
      vertex 32.666667 58.000000 -2.000000
      vertex 16.000000 58.000000 18.000000
      vertex 32.666667 58.000000 18.000000
    endloop
  endfacet
  facet normal 0.000000 1.000000 0.000000
    outer loop
      vertex 2.000000 58.000000 -0.500000
      vertex 0.000000 58.000000 18.000000
      vertex 2.000000 58.000000 18.000000
    endloop
  endfacet
  facet normal 0.000000 0.000000 1.000000
    outer loop
      vertex 0.000000 58.000000 18.000000
      vertex 0.000000 37.000000 18.000000
      vertex 2.000000 37.000000 18.000000
    endloop
  endfacet
  facet normal 0.000000 0.000000 1.000000
    outer loop
      vertex 2.000000 58.000000 18.000000
      vertex 0.000000 58.000000 18.000000
      vertex 2.000000 37.000000 18.000000
    endloop
  endfacet
  facet normal 1.000000 0.000000 0.000000
    outer loop
      vertex 2.000000 52.000000 2.000000
      vertex 2.000000 52.000000 -0.500000
      vertex 2.000000 58.000000 -0.500000
    endloop
  endfacet
  facet normal 1.000000 0.000000 0.000000
    outer loop
      vertex 2.000000 37.000000 18.000000
      vertex 2.000000 52.000000 2.000000
      vertex 2.000000 58.000000 18.000000
    endloop
  endfacet
  facet normal 1.000000 0.000000 0.000000
    outer loop
      vertex 2.000000 58.000000 18.000000
      vertex 2.000000 52.000000 2.000000
      vertex 2.000000 58.000000 -0.500000
    endloop
  endfacet
  facet normal 1.000000 0.000000 0.000000
    outer loop
      vertex 2.000000 37.000000 2.000000
      vertex 2.000000 52.000000 2.000000
      vertex 2.000000 37.000000 18.000000
    endloop
  endfacet
  facet normal 0.000000 0.000000 1.000000
    outer loop
      vertex 16.000000 37.000000 2.000000
      vertex 16.000000 52.000000 2.000000
      vertex 2.000000 52.000000 2.000000
    endloop
  endfacet
  facet normal 0.000000 0.000000 1.000000
    outer loop
      vertex 2.000000 37.000000 2.000000
      vertex 16.000000 37.000000 2.000000
      vertex 2.000000 52.000000 2.000000
    endloop
  endfacet
  facet normal -1.000000 0.000000 0.000000
    outer loop
      vertex 16.000000 37.415089 10.379809
      vertex 16.000000 58.000000 18.000000
      vertex 16.000000 37.000000 8.426968
    endloop
  endfacet
  facet normal -1.000000 0.000000 0.000000
    outer loop
      vertex 16.000000 37.000000 18.000000
      vertex 16.000000 37.415089 13.620191
      vertex 16.000000 37.000000 15.573032
    endloop
  endfacet
  facet normal -1.000000 0.000000 0.000000
    outer loop
      vertex 16.000000 58.000000 18.000000
      vertex 16.000000 37.415089 13.620191
      vertex 16.000000 37.000000 18.000000
    endloop
  endfacet
  facet normal -1.000000 0.000000 0.000000
    outer loop
      vertex 16.000000 37.415089 10.379809
      vertex 16.000000 37.415089 13.620191
      vertex 16.000000 58.000000 18.000000
    endloop
  endfacet
  facet normal -1.000000 0.000000 0.000000
    outer loop
      vertex 16.000000 58.000000 18.000000
      vertex 16.000000 58.000000 -0.500000
      vertex 16.000000 37.000000 8.426968
    endloop
  endfacet
  facet normal -1.000000 0.000000 0.000000
    outer loop
      vertex 16.000000 58.000000 -0.500000
      vertex 16.000000 52.000000 -0.500000
      vertex 16.000000 52.000000 2.000000
    endloop
  endfacet
  facet normal -1.000000 0.000000 0.000000
    outer loop
      vertex 16.000000 58.000000 -0.500000
      vertex 16.000000 52.000000 2.000000
      vertex 16.000000 37.000000 8.426968
    endloop
  endfacet
  facet normal -1.000000 0.000000 0.000000
    outer loop
      vertex 16.000000 37.000000 2.000000
      vertex 16.000000 37.000000 8.426968
      vertex 16.000000 52.000000 2.000000
    endloop
  endfacet
  facet normal 0.000000 -0.978148 0.207912
    outer loop
      vertex 30.000000 37.000000 8.426968
      vertex 30.000000 37.415089 10.379809
      vertex 16.000000 37.415089 10.379809
    endloop
  endfacet
  facet normal 0.000000 -0.978148 0.207912
    outer loop
      vertex 16.000000 37.000000 8.426968
      vertex 30.000000 37.000000 8.426968
      vertex 16.000000 37.415089 10.379809
    endloop
  endfacet
  facet normal -1.000000 0.000000 0.000000
    outer loop
      vertex 30.000000 37.415089 10.379809
      vertex 30.000000 37.000000 8.426968
      vertex 30.000000 37.415089 13.620191
    endloop
  endfacet
  facet normal -1.000000 0.000000 0.000000
    outer loop
      vertex 30.000000 37.415089 13.620191
      vertex 30.000000 37.000000 8.426968
      vertex 30.000000 37.000000 15.573032
    endloop
  endfacet
  facet normal 0.000000 -0.978148 -0.207912
    outer loop
      vertex 16.000000 37.415089 13.620191
      vertex 30.000000 37.415089 13.620191
      vertex 30.000000 37.000000 15.573032
    endloop
  endfacet
  facet normal 0.000000 -0.978148 -0.207912
    outer loop
      vertex 16.000000 37.000000 15.573032
      vertex 16.000000 37.415089 13.620191
      vertex 30.000000 37.000000 15.573032
    endloop
  endfacet
  facet normal 0.000000 0.000000 1.000000
    outer loop
      vertex 16.000000 58.000000 18.000000
      vertex 16.000000 37.000000 18.000000
      vertex 32.666667 37.000000 18.000000
    endloop
  endfacet
  facet normal 0.000000 0.000000 1.000000
    outer loop
      vertex 32.666667 58.000000 18.000000
      vertex 16.000000 58.000000 18.000000
      vertex 32.666667 37.000000 18.000000
    endloop
  endfacet
  facet normal 1.000000 0.000000 0.000000
    outer loop
      vertex 32.666667 37.000000 18.000000
      vertex 32.666667 37.000000 -2.000000
      vertex 32.666667 58.000000 -2.000000
    endloop
  endfacet
  facet normal 1.000000 0.000000 0.000000
    outer loop
      vertex 32.666667 58.000000 18.000000
      vertex 32.666667 37.000000 18.000000
      vertex 32.666667 58.000000 -2.000000
    endloop
  endfacet
  facet normal 0.000000 0.000000 1.000000
    outer loop
      vertex 16.000000 52.000000 -0.500000
      vertex 16.000000 58.000000 -0.500000
      vertex 2.000000 58.000000 -0.500000
    endloop
  endfacet
  facet normal 0.000000 0.000000 1.000000
    outer loop
      vertex 2.000000 52.000000 -0.500000
      vertex 16.000000 52.000000 -0.500000
      vertex 2.000000 58.000000 -0.500000
    endloop
  endfacet
  facet normal 0.000000 1.000000 0.000000
    outer loop
      vertex 16.000000 52.000000 2.000000
      vertex 16.000000 52.000000 -0.500000
      vertex 2.000000 52.000000 2.000000
    endloop
  endfacet
  facet normal 0.000000 1.000000 0.000000
    outer loop
      vertex 2.000000 52.000000 2.000000
      vertex 16.000000 52.000000 -0.500000
      vertex 2.000000 52.000000 -0.500000
    endloop
  endfacet
  facet normal 0.000000 -1.000000 0.000000
    outer loop
      vertex 30.000000 37.415089 10.379809
      vertex 30.000000 37.415089 13.620191
      vertex 16.000000 37.415089 13.620191
    endloop
  endfacet
  facet normal 0.000000 -1.000000 0.000000
    outer loop
      vertex 16.000000 37.415089 10.379809
      vertex 30.000000 37.415089 10.379809
      vertex 16.000000 37.415089 13.620191
    endloop
  endfacet
endsolid OpenSCAD_Model
