solid OpenSCAD_Model
  facet normal -1.000000 0.000000 0.000000
    outer loop
      vertex -49.000000 -2.250000 1.500000
      vertex -49.000000 -2.250000 21.500000
      vertex -49.000000 -2.000000 1.500000
    endloop
  endfacet
  facet normal -1.000000 0.000000 0.000000
    outer loop
      vertex -49.000000 -2.000000 1.500000
      vertex -49.000000 -2.250000 21.500000
      vertex -49.000000 26.250000 21.500000
    endloop
  endfacet
  facet normal -1.000000 0.000000 0.000000
    outer loop
      vertex -49.000000 -2.000000 1.500000
      vertex -49.000000 26.250000 21.500000
      vertex -49.000000 26.250000 1.500000
    endloop
  endfacet
  facet normal -1.000000 0.000000 0.000000
    outer loop
      vertex -49.000000 26.250000 1.500000
      vertex -49.000000 27.000000 1.500000
      vertex -49.000000 27.000000 -1.500000
    endloop
  endfacet
  facet normal -1.000000 0.000000 0.000000
    outer loop
      vertex -49.000000 26.250000 1.500000
      vertex -49.000000 27.000000 -1.500000
      vertex -49.000000 -2.000000 1.500000
    endloop
  endfacet
  facet normal -1.000000 0.000000 0.000000
    outer loop
      vertex -49.000000 -2.000000 1.500000
      vertex -49.000000 27.000000 -1.500000
      vertex -49.000000 -2.000000 -1.500000
    endloop
  endfacet
  facet normal 0.000000 -1.000000 0.000000
    outer loop
      vertex -32.000000 -2.250000 2.000000
      vertex -49.000000 -2.250000 1.500000
      vertex -16.000000 -2.250000 1.500000
    endloop
  endfacet
  facet normal 0.000000 -1.000000 0.000000
    outer loop
      vertex -46.000000 -2.250000 2.000000
      vertex -46.000000 -2.250000 21.500000
      vertex -49.000000 -2.250000 21.500000
    endloop
  endfacet
  facet normal 0.000000 -1.000000 0.000000
    outer loop
      vertex -16.000000 -2.250000 21.500000
      vertex -32.000000 -2.250000 21.500000
      vertex -16.000000 -2.250000 1.500000
    endloop
  endfacet
  facet normal 0.000000 -1.000000 0.000000
    outer loop
      vertex -46.000000 -2.250000 2.000000
      vertex -49.000000 -2.250000 1.500000
      vertex -32.000000 -2.250000 2.000000
    endloop
  endfacet
  facet normal 0.000000 -1.000000 0.000000
    outer loop
      vertex -49.000000 -2.250000 21.500000
      vertex -49.000000 -2.250000 1.500000
      vertex -46.000000 -2.250000 2.000000
    endloop
  endfacet
  facet normal 0.000000 -1.000000 0.000000
    outer loop
      vertex -32.000000 -2.250000 21.500000
      vertex -32.000000 -2.250000 2.000000
      vertex -16.000000 -2.250000 1.500000
    endloop
  endfacet
  facet normal 0.000000 0.000000 -1.000000
    outer loop
      vertex -16.000000 -2.000000 1.500000
      vertex -16.000000 -2.250000 1.500000
      vertex -49.000000 -2.000000 1.500000
    endloop
  endfacet
  facet normal 0.000000 0.000000 -1.000000
    outer loop
      vertex -49.000000 -2.000000 1.500000
      vertex -16.000000 -2.250000 1.500000
      vertex -49.000000 -2.250000 1.500000
    endloop
  endfacet
  facet normal 0.000000 -1.000000 0.000000
    outer loop
      vertex -49.000000 -2.000000 1.500000
      vertex -49.000000 -2.000000 -1.500000
      vertex -15.500000 -2.000000 -1.500000
    endloop
  endfacet
  facet normal 0.000000 -1.000000 0.000000
    outer loop
      vertex -16.000000 -2.000000 1.500000
      vertex -49.000000 -2.000000 1.500000
      vertex -15.500000 -2.000000 -1.500000
    endloop
  endfacet
  facet normal 0.000000 -1.000000 0.000000
    outer loop
      vertex -15.500000 -2.000000 1.500000
      vertex -16.000000 -2.000000 1.500000
      vertex -15.500000 -2.000000 -1.500000
    endloop
  endfacet
  facet normal 0.000000 0.000000 -1.000000
    outer loop
      vertex -49.000000 -2.000000 -1.500000
      vertex -49.000000 27.000000 -1.500000
      vertex -15.500000 -2.000000 -1.500000
    endloop
  endfacet
  facet normal 0.000000 0.000000 -1.000000
    outer loop
      vertex -15.500000 -2.000000 -1.500000
      vertex -49.000000 27.000000 -1.500000
      vertex -15.500000 27.000000 -1.500000
    endloop
  endfacet
  facet normal 0.000000 0.000000 -1.000000
    outer loop
      vertex -15.500000 27.000000 -1.500000
      vertex -15.500000 41.000000 -1.500000
      vertex 15.500000 41.000000 -1.500000
    endloop
  endfacet
  facet normal 0.000000 0.000000 -1.000000
    outer loop
      vertex -15.500000 27.000000 -1.500000
      vertex 15.500000 41.000000 -1.500000
      vertex -15.500000 -2.000000 -1.500000
    endloop
  endfacet
  facet normal 0.000000 0.000000 -1.000000
    outer loop
      vertex -15.500000 -2.000000 -1.500000
      vertex 15.500000 41.000000 -1.500000
      vertex 15.500000 27.000000 -1.500000
    endloop
  endfacet
  facet normal 0.000000 0.000000 -1.000000
    outer loop
      vertex -15.500000 -2.000000 -1.500000
      vertex 15.500000 27.000000 -1.500000
      vertex 49.000000 27.000000 -1.500000
    endloop
  endfacet
  facet normal 0.000000 0.000000 -1.000000
    outer loop
      vertex 15.500000 -2.000000 -1.500000
      vertex 49.000000 27.000000 -1.500000
      vertex 49.000000 -2.000000 -1.500000
    endloop
  endfacet
  facet normal 0.000000 0.000000 -1.000000
    outer loop
      vertex -15.500000 -2.000000 -1.500000
      vertex 49.000000 27.000000 -1.500000
      vertex 15.500000 -2.000000 -1.500000
    endloop
  endfacet
  facet normal 0.000000 0.000000 -1.000000
    outer loop
      vertex 15.500000 -2.000000 -1.500000
      vertex 15.500000 -41.000000 -1.500000
      vertex -15.500000 -2.000000 -1.500000
    endloop
  endfacet
  facet normal 0.000000 0.000000 -1.000000
    outer loop
      vertex -15.500000 -2.000000 -1.500000
      vertex 15.500000 -41.000000 -1.500000
      vertex -15.500000 -41.000000 -1.500000
    endloop
  endfacet
  facet normal 0.000000 1.000000 0.000000
    outer loop
      vertex -46.000000 27.000000 1.500000
      vertex -46.000000 27.000000 -0.500000
      vertex -49.000000 27.000000 1.500000
    endloop
  endfacet
  facet normal 0.000000 1.000000 0.000000
    outer loop
      vertex -49.000000 27.000000 -1.500000
      vertex -46.000000 27.000000 -0.500000
      vertex -15.500000 27.000000 -1.500000
    endloop
  endfacet
  facet normal 0.000000 1.000000 0.000000
    outer loop
      vertex -16.000000 27.000000 1.500000
      vertex -32.000000 27.000000 -0.500000
      vertex -32.000000 27.000000 1.500000
    endloop
  endfacet
  facet normal 0.000000 1.000000 0.000000
    outer loop
      vertex -15.500000 27.000000 1.500000
      vertex -32.000000 27.000000 -0.500000
      vertex -16.000000 27.000000 1.500000
    endloop
  endfacet
  facet normal 0.000000 1.000000 0.000000
    outer loop
      vertex -15.500000 27.000000 -1.500000
      vertex -32.000000 27.000000 -0.500000
      vertex -15.500000 27.000000 1.500000
    endloop
  endfacet
  facet normal 0.000000 1.000000 0.000000
    outer loop
      vertex -46.000000 27.000000 -0.500000
      vertex -32.000000 27.000000 -0.500000
      vertex -15.500000 27.000000 -1.500000
    endloop
  endfacet
  facet normal 0.000000 1.000000 0.000000
    outer loop
      vertex -49.000000 27.000000 1.500000
      vertex -46.000000 27.000000 -0.500000
      vertex -49.000000 27.000000 -1.500000
    endloop
  endfacet
  facet normal 0.000000 0.000000 1.000000
    outer loop
      vertex -49.000000 27.000000 1.500000
      vertex -49.000000 26.250000 1.500000
      vertex -46.000000 26.250000 1.500000
    endloop
  endfacet
  facet normal 0.000000 0.000000 1.000000
    outer loop
      vertex -46.000000 27.000000 1.500000
      vertex -49.000000 27.000000 1.500000
      vertex -46.000000 26.250000 1.500000
    endloop
  endfacet
  facet normal 0.000000 1.000000 0.000000
    outer loop
      vertex -49.000000 26.250000 1.500000
      vertex -49.000000 26.250000 21.500000
      vertex -46.000000 26.250000 1.500000
    endloop
  endfacet
  facet normal 0.000000 1.000000 0.000000
    outer loop
      vertex -46.000000 26.250000 1.500000
      vertex -49.000000 26.250000 21.500000
      vertex -46.000000 26.250000 21.500000
    endloop
  endfacet
  facet normal 0.000000 0.000000 1.000000
    outer loop
      vertex -49.000000 26.250000 21.500000
      vertex -49.000000 -2.250000 21.500000
      vertex -46.000000 -2.250000 21.500000
    endloop
  endfacet
  facet normal 0.000000 0.000000 1.000000
    outer loop
      vertex -46.000000 26.250000 21.500000
      vertex -49.000000 26.250000 21.500000
      vertex -46.000000 -2.250000 21.500000
    endloop
  endfacet
  facet normal 1.000000 0.000000 0.000000
    outer loop
      vertex -46.000000 -2.250000 21.500000
      vertex -46.000000 -2.250000 2.000000
      vertex -46.000000 9.000000 2.000000
    endloop
  endfacet
  facet normal 1.000000 0.000000 0.000000
    outer loop
      vertex -46.000000 27.000000 -0.500000
      vertex -46.000000 -2.250000 21.500000
      vertex -46.000000 9.000000 2.000000
    endloop
  endfacet
  facet normal 1.000000 0.000000 0.000000
    outer loop
      vertex -46.000000 9.000000 -0.500000
      vertex -46.000000 27.000000 -0.500000
      vertex -46.000000 9.000000 2.000000
    endloop
  endfacet
  facet normal 1.000000 0.000000 0.000000
    outer loop
      vertex -46.000000 27.000000 -0.500000
      vertex -46.000000 26.250000 1.500000
      vertex -46.000000 -2.250000 21.500000
    endloop
  endfacet
  facet normal 1.000000 0.000000 0.000000
    outer loop
      vertex -46.000000 27.000000 -0.500000
      vertex -46.000000 27.000000 1.500000
      vertex -46.000000 26.250000 1.500000
    endloop
  endfacet
  facet normal 1.000000 0.000000 0.000000
    outer loop
      vertex -46.000000 26.250000 1.500000
      vertex -46.000000 26.250000 21.500000
      vertex -46.000000 -2.250000 21.500000
    endloop
  endfacet
  facet normal 0.000000 0.000000 1.000000
    outer loop
      vertex -46.000000 9.000000 2.000000
      vertex -46.000000 -2.250000 2.000000
      vertex -32.000000 -2.250000 2.000000
    endloop
  endfacet
  facet normal 0.000000 0.000000 1.000000
    outer loop
      vertex -32.000000 9.000000 2.000000
      vertex -46.000000 9.000000 2.000000
      vertex -32.000000 -2.250000 2.000000
    endloop
  endfacet
  facet normal -1.000000 0.000000 0.000000
    outer loop
      vertex -32.000000 -2.250000 2.000000
      vertex -32.000000 -2.250000 21.500000
      vertex -32.000000 9.000000 2.000000
    endloop
  endfacet
  facet normal -1.000000 0.000000 0.000000
    outer loop
      vertex -32.000000 9.000000 2.000000
      vertex -32.000000 -2.250000 21.500000
      vertex -32.000000 26.250000 21.500000
    endloop
  endfacet
  facet normal -1.000000 0.000000 0.000000
    outer loop
      vertex -32.000000 9.000000 2.000000
      vertex -32.000000 26.250000 21.500000
      vertex -32.000000 26.250000 1.500000
    endloop
  endfacet
  facet normal -1.000000 0.000000 0.000000
    outer loop
      vertex -32.000000 26.250000 1.500000
      vertex -32.000000 27.000000 1.500000
      vertex -32.000000 27.000000 -0.500000
    endloop
  endfacet
  facet normal -1.000000 0.000000 0.000000
    outer loop
      vertex -32.000000 9.000000 2.000000
      vertex -32.000000 26.250000 1.500000
      vertex -32.000000 27.000000 -0.500000
    endloop
  endfacet
  facet normal -1.000000 0.000000 0.000000
    outer loop
      vertex -32.000000 9.000000 2.000000
      vertex -32.000000 27.000000 -0.500000
      vertex -32.000000 9.000000 -0.500000
    endloop
  endfacet
  facet normal 0.000000 0.000000 1.000000
    outer loop
      vertex -32.000000 26.250000 21.500000
      vertex -32.000000 -2.250000 21.500000
      vertex -16.000000 -2.250000 21.500000
    endloop
  endfacet
  facet normal 0.000000 0.000000 1.000000
    outer loop
      vertex -16.000000 26.250000 21.500000
      vertex -32.000000 26.250000 21.500000
      vertex -16.000000 -2.250000 21.500000
    endloop
  endfacet
  facet normal 1.000000 0.000000 0.000000
    outer loop
      vertex -16.000000 -2.000000 1.500000
      vertex -16.000000 26.250000 1.500000
      vertex -16.000000 26.250000 21.500000
    endloop
  endfacet
  facet normal 1.000000 0.000000 0.000000
    outer loop
      vertex -16.000000 -2.250000 1.500000
      vertex -16.000000 -2.000000 1.500000
      vertex -16.000000 -2.250000 21.500000
    endloop
  endfacet
  facet normal 1.000000 0.000000 0.000000
    outer loop
      vertex -16.000000 -2.250000 21.500000
      vertex -16.000000 -2.000000 1.500000
      vertex -16.000000 26.250000 21.500000
    endloop
  endfacet
  facet normal 0.000000 0.000000 1.000000
    outer loop
      vertex 15.500000 -2.000000 1.500000
      vertex 16.000000 -2.000000 1.500000
      vertex -16.000000 26.250000 1.500000
    endloop
  endfacet
  facet normal 0.000000 0.000000 1.000000
    outer loop
      vertex -16.000000 26.250000 1.500000
      vertex -16.000000 -2.000000 1.500000
      vertex -15.500000 -2.000000 1.500000
    endloop
  endfacet
  facet normal 0.000000 0.000000 1.000000
    outer loop
      vertex -10.500000 -27.000000 1.500000
      vertex -16.000000 26.250000 1.500000
      vertex -15.500000 -2.000000 1.500000
    endloop
  endfacet
  facet normal 0.000000 0.000000 1.000000
    outer loop
      vertex -15.500000 -27.000000 1.500000
      vertex -10.500000 -27.000000 1.500000
      vertex -15.500000 -2.000000 1.500000
    endloop
  endfacet
  facet normal 0.000000 0.000000 1.000000
    outer loop
      vertex -10.500000 -27.000000 1.500000
      vertex 10.500000 -27.000000 1.500000
      vertex -16.000000 26.250000 1.500000
    endloop
  endfacet
  facet normal 0.000000 0.000000 1.000000
    outer loop
      vertex 10.500000 -27.000000 1.500000
      vertex 15.500000 -27.000000 1.500000
      vertex -16.000000 26.250000 1.500000
    endloop
  endfacet
  facet normal 0.000000 0.000000 1.000000
    outer loop
      vertex 15.500000 -27.000000 1.500000
      vertex 15.500000 -2.000000 1.500000
      vertex -16.000000 26.250000 1.500000
    endloop
  endfacet
  facet normal 0.000000 0.000000 1.000000
    outer loop
      vertex 16.000000 -2.000000 1.500000
      vertex 16.000000 26.250000 1.500000
      vertex -16.000000 26.250000 1.500000
    endloop
  endfacet
  facet normal 0.000000 0.000000 1.000000
    outer loop
      vertex 16.000000 26.250000 1.500000
      vertex 16.000000 27.000000 1.500000
      vertex -16.000000 26.250000 1.500000
    endloop
  endfacet
  facet normal 0.000000 0.000000 1.000000
    outer loop
      vertex 16.000000 27.000000 1.500000
      vertex 15.500000 27.000000 1.500000
      vertex -16.000000 26.250000 1.500000
    endloop
  endfacet
  facet normal 0.000000 0.000000 1.000000
    outer loop
      vertex 15.500000 27.000000 1.500000
      vertex -15.500000 27.000000 1.500000
      vertex -16.000000 26.250000 1.500000
    endloop
  endfacet
  facet normal 0.000000 0.000000 1.000000
    outer loop
      vertex -15.500000 27.000000 1.500000
      vertex -16.000000 27.000000 1.500000
      vertex -16.000000 26.250000 1.500000
    endloop
  endfacet
  facet normal -1.000000 0.000000 0.000000
    outer loop
      vertex -15.500000 -41.000000 -1.500000
      vertex -15.500000 -41.000000 1.500000
      vertex -15.500000 -2.000000 -1.500000
    endloop
  endfacet
  facet normal -1.000000 0.000000 0.000000
    outer loop
      vertex -15.500000 -2.000000 -1.500000
      vertex -15.500000 -41.000000 1.500000
      vertex -15.500000 -34.000000 1.500000
    endloop
  endfacet
  facet normal -1.000000 0.000000 0.000000
    outer loop
      vertex -15.500000 -2.000000 -1.500000
      vertex -15.500000 -34.000000 1.500000
      vertex -15.500000 -27.000000 1.500000
    endloop
  endfacet
  facet normal -1.000000 0.000000 0.000000
    outer loop
      vertex -15.500000 -2.000000 -1.500000
      vertex -15.500000 -27.000000 1.500000
      vertex -15.500000 -2.000000 1.500000
    endloop
  endfacet
  facet normal 0.000000 -1.000000 0.000000
    outer loop
      vertex -15.500000 -41.000000 1.500000
      vertex -15.500000 -41.000000 -1.500000
      vertex 15.500000 -41.000000 -1.500000
    endloop
  endfacet
  facet normal 0.000000 -1.000000 0.000000
    outer loop
      vertex 15.500000 -41.000000 44.500000
      vertex -15.500000 -41.000000 1.500000
      vertex 15.500000 -41.000000 1.500000
    endloop
  endfacet
  facet normal 0.000000 -1.000000 0.000000
    outer loop
      vertex 15.500000 -41.000000 1.500000
      vertex -15.500000 -41.000000 1.500000
      vertex 15.500000 -41.000000 -1.500000
    endloop
  endfacet
  facet normal 0.000000 -1.000000 0.000000
    outer loop
      vertex -15.500000 -41.000000 44.500000
      vertex -15.500000 -41.000000 1.500000
      vertex 15.500000 -41.000000 44.500000
    endloop
  endfacet
  facet normal 1.000000 0.000000 0.000000
    outer loop
      vertex 15.500000 -2.000000 -1.500000
      vertex 15.500000 -2.000000 1.500000
      vertex 15.500000 -27.000000 1.500000
    endloop
  endfacet
  facet normal 1.000000 0.000000 0.000000
    outer loop
      vertex 15.500000 -41.000000 1.500000
      vertex 15.500000 -2.000000 -1.500000
      vertex 15.500000 -34.000000 1.500000
    endloop
  endfacet
  facet normal 1.000000 0.000000 0.000000
    outer loop
      vertex 15.500000 -34.000000 1.500000
      vertex 15.500000 -2.000000 -1.500000
      vertex 15.500000 -27.000000 1.500000
    endloop
  endfacet
  facet normal 1.000000 0.000000 0.000000
    outer loop
      vertex 15.500000 -41.000000 -1.500000
      vertex 15.500000 -2.000000 -1.500000
      vertex 15.500000 -41.000000 1.500000
    endloop
  endfacet
  facet normal 0.000000 -1.000000 0.000000
    outer loop
      vertex 49.000000 -2.000000 -1.500000
      vertex 49.000000 -2.000000 1.500000
      vertex 16.000000 -2.000000 1.500000
    endloop
  endfacet
  facet normal 0.000000 -1.000000 0.000000
    outer loop
      vertex 15.500000 -2.000000 -1.500000
      vertex 49.000000 -2.000000 -1.500000
      vertex 15.500000 -2.000000 1.500000
    endloop
  endfacet
  facet normal 0.000000 -1.000000 0.000000
    outer loop
      vertex 15.500000 -2.000000 1.500000
      vertex 49.000000 -2.000000 -1.500000
      vertex 16.000000 -2.000000 1.500000
    endloop
  endfacet
  facet normal 1.000000 0.000000 0.000000
    outer loop
      vertex 49.000000 -2.250000 21.500000
      vertex 49.000000 -2.250000 1.500000
      vertex 49.000000 -2.000000 1.500000
    endloop
  endfacet
  facet normal 1.000000 0.000000 0.000000
    outer loop
      vertex 49.000000 27.000000 -1.500000
      vertex 49.000000 -2.250000 21.500000
      vertex 49.000000 -2.000000 1.500000
    endloop
  endfacet
  facet normal 1.000000 0.000000 0.000000
    outer loop
      vertex 49.000000 -2.000000 -1.500000
      vertex 49.000000 27.000000 -1.500000
      vertex 49.000000 -2.000000 1.500000
    endloop
  endfacet
  facet normal 1.000000 0.000000 0.000000
    outer loop
      vertex 49.000000 27.000000 -1.500000
      vertex 49.000000 26.250000 1.500000
      vertex 49.000000 -2.250000 21.500000
    endloop
  endfacet
  facet normal 1.000000 0.000000 0.000000
    outer loop
      vertex 49.000000 27.000000 -1.500000
      vertex 49.000000 27.000000 1.500000
      vertex 49.000000 26.250000 1.500000
    endloop
  endfacet
  facet normal 1.000000 0.000000 0.000000
    outer loop
      vertex 49.000000 26.250000 1.500000
      vertex 49.000000 26.250000 21.500000
      vertex 49.000000 -2.250000 21.500000
    endloop
  endfacet
  facet normal 0.000000 1.000000 0.000000
    outer loop
      vertex 46.000000 27.000000 -0.500000
      vertex 49.000000 27.000000 -1.500000
      vertex 32.000000 27.000000 -0.500000
    endloop
  endfacet
  facet normal 0.000000 1.000000 0.000000
    outer loop
      vertex 15.500000 27.000000 -1.500000
      vertex 15.500000 27.000000 1.500000
      vertex 32.000000 27.000000 -0.500000
    endloop
  endfacet
  facet normal 0.000000 1.000000 0.000000
    outer loop
      vertex 15.500000 27.000000 -1.500000
      vertex 32.000000 27.000000 -0.500000
      vertex 49.000000 27.000000 -1.500000
    endloop
  endfacet
  facet normal 0.000000 1.000000 0.000000
    outer loop
      vertex 49.000000 27.000000 -1.500000
      vertex 46.000000 27.000000 -0.500000
      vertex 46.000000 27.000000 1.500000
    endloop
  endfacet
  facet normal 0.000000 1.000000 0.000000
    outer loop
      vertex 49.000000 27.000000 -1.500000
      vertex 46.000000 27.000000 1.500000
      vertex 49.000000 27.000000 1.500000
    endloop
  endfacet
  facet normal 0.000000 1.000000 0.000000
    outer loop
      vertex 32.000000 27.000000 -0.500000
      vertex 15.500000 27.000000 1.500000
      vertex 16.000000 27.000000 1.500000
    endloop
  endfacet
  facet normal 0.000000 1.000000 0.000000
    outer loop
      vertex 32.000000 27.000000 -0.500000
      vertex 16.000000 27.000000 1.500000
      vertex 32.000000 27.000000 1.500000
    endloop
  endfacet
  facet normal 1.000000 0.000000 0.000000
    outer loop
      vertex 15.500000 41.000000 -1.500000
      vertex 15.500000 41.000000 1.500000
      vertex 15.500000 31.000000 1.500000
    endloop
  endfacet
  facet normal 1.000000 0.000000 0.000000
    outer loop
      vertex 15.500000 27.000000 -1.500000
      vertex 15.500000 41.000000 -1.500000
      vertex 15.500000 27.000000 1.500000
    endloop
  endfacet
  facet normal 1.000000 0.000000 0.000000
    outer loop
      vertex 15.500000 27.000000 1.500000
      vertex 15.500000 41.000000 -1.500000
      vertex 15.500000 31.000000 1.500000
    endloop
  endfacet
  facet normal 0.000000 1.000000 0.000000
    outer loop
      vertex -15.500000 41.000000 -1.500000
      vertex -15.500000 41.000000 1.500000
      vertex 15.500000 41.000000 -1.500000
    endloop
  endfacet
  facet normal 0.000000 1.000000 0.000000
    outer loop
      vertex 15.500000 41.000000 -1.500000
      vertex -15.500000 41.000000 1.500000
      vertex -15.500000 41.000000 7.500000
    endloop
  endfacet
  facet normal 0.000000 1.000000 0.000000
    outer loop
      vertex 15.500000 41.000000 1.500000
      vertex -15.500000 41.000000 7.500000
      vertex 15.500000 41.000000 7.500000
    endloop
  endfacet
  facet normal 0.000000 1.000000 0.000000
    outer loop
      vertex 15.500000 41.000000 -1.500000
      vertex -15.500000 41.000000 7.500000
      vertex 15.500000 41.000000 1.500000
    endloop
  endfacet
  facet normal -1.000000 0.000000 0.000000
    outer loop
      vertex -15.500000 27.000000 -1.500000
      vertex -15.500000 27.000000 1.500000
      vertex -15.500000 41.000000 -1.500000
    endloop
  endfacet
  facet normal -1.000000 0.000000 0.000000
    outer loop
      vertex -15.500000 41.000000 -1.500000
      vertex -15.500000 27.000000 1.500000
      vertex -15.500000 31.000000 1.500000
    endloop
  endfacet
  facet normal -1.000000 0.000000 0.000000
    outer loop
      vertex -15.500000 41.000000 -1.500000
      vertex -15.500000 31.000000 1.500000
      vertex -15.500000 41.000000 1.500000
    endloop
  endfacet
  facet normal 0.000000 0.000000 1.000000
    outer loop
      vertex -15.500000 31.000000 1.500000
      vertex -15.500000 27.000000 1.500000
      vertex 15.500000 27.000000 1.500000
    endloop
  endfacet
  facet normal 0.000000 0.000000 1.000000
    outer loop
      vertex 15.500000 31.000000 1.500000
      vertex -15.500000 31.000000 1.500000
      vertex 15.500000 27.000000 1.500000
    endloop
  endfacet
  facet normal 0.000000 0.000000 1.000000
    outer loop
      vertex -32.000000 27.000000 1.500000
      vertex -32.000000 26.250000 1.500000
      vertex -16.000000 26.250000 1.500000
    endloop
  endfacet
  facet normal 0.000000 0.000000 1.000000
    outer loop
      vertex -16.000000 27.000000 1.500000
      vertex -32.000000 27.000000 1.500000
      vertex -16.000000 26.250000 1.500000
    endloop
  endfacet
  facet normal 0.000000 0.000000 1.000000
    outer loop
      vertex -46.000000 27.000000 -0.500000
      vertex -46.000000 9.000000 -0.500000
      vertex -32.000000 9.000000 -0.500000
    endloop
  endfacet
  facet normal 0.000000 0.000000 1.000000
    outer loop
      vertex -32.000000 27.000000 -0.500000
      vertex -46.000000 27.000000 -0.500000
      vertex -32.000000 9.000000 -0.500000
    endloop
  endfacet
  facet normal 0.000000 1.000000 0.000000
    outer loop
      vertex -46.000000 9.000000 -0.500000
      vertex -46.000000 9.000000 2.000000
      vertex -32.000000 9.000000 -0.500000
    endloop
  endfacet
  facet normal 0.000000 1.000000 0.000000
    outer loop
      vertex -32.000000 9.000000 -0.500000
      vertex -46.000000 9.000000 2.000000
      vertex -32.000000 9.000000 2.000000
    endloop
  endfacet
  facet normal 0.000000 1.000000 0.000000
    outer loop
      vertex -32.000000 26.250000 1.500000
      vertex -32.000000 26.250000 21.500000
      vertex -16.000000 26.250000 1.500000
    endloop
  endfacet
  facet normal 0.000000 1.000000 0.000000
    outer loop
      vertex -16.000000 26.250000 1.500000
      vertex -32.000000 26.250000 21.500000
      vertex -16.000000 26.250000 21.500000
    endloop
  endfacet
  facet normal 0.000000 0.000000 1.000000
    outer loop
      vertex 16.000000 27.000000 1.500000
      vertex 16.000000 26.250000 1.500000
      vertex 32.000000 26.250000 1.500000
    endloop
  endfacet
  facet normal 0.000000 0.000000 1.000000
    outer loop
      vertex 32.000000 27.000000 1.500000
      vertex 16.000000 27.000000 1.500000
      vertex 32.000000 26.250000 1.500000
    endloop
  endfacet
  facet normal 0.000000 1.000000 0.000000
    outer loop
      vertex 16.000000 26.250000 1.500000
      vertex 16.000000 26.250000 21.500000
      vertex 32.000000 26.250000 1.500000
    endloop
  endfacet
  facet normal 0.000000 1.000000 0.000000
    outer loop
      vertex 32.000000 26.250000 1.500000
      vertex 16.000000 26.250000 21.500000
      vertex 32.000000 26.250000 21.500000
    endloop
  endfacet
  facet normal -1.000000 0.000000 0.000000
    outer loop
      vertex 16.000000 26.250000 21.500000
      vertex 16.000000 26.250000 1.500000
      vertex 16.000000 -2.250000 21.500000
    endloop
  endfacet
  facet normal -1.000000 0.000000 0.000000
    outer loop
      vertex 16.000000 -2.250000 21.500000
      vertex 16.000000 26.250000 1.500000
      vertex 16.000000 -2.000000 1.500000
    endloop
  endfacet
  facet normal -1.000000 0.000000 0.000000
    outer loop
      vertex 16.000000 -2.250000 21.500000
      vertex 16.000000 -2.000000 1.500000
      vertex 16.000000 -2.250000 1.500000
    endloop
  endfacet
  facet normal 0.000000 0.000000 -1.000000
    outer loop
      vertex 49.000000 -2.000000 1.500000
      vertex 49.000000 -2.250000 1.500000
      vertex 16.000000 -2.000000 1.500000
    endloop
  endfacet
  facet normal 0.000000 0.000000 -1.000000
    outer loop
      vertex 16.000000 -2.000000 1.500000
      vertex 49.000000 -2.250000 1.500000
      vertex 16.000000 -2.250000 1.500000
    endloop
  endfacet
  facet normal 0.000000 0.000000 1.000000
    outer loop
      vertex 10.500000 -27.000000 1.500000
      vertex 10.500000 -34.000000 1.500000
      vertex 15.500000 -34.000000 1.500000
    endloop
  endfacet
  facet normal 0.000000 0.000000 1.000000
    outer loop
      vertex 15.500000 -27.000000 1.500000
      vertex 10.500000 -27.000000 1.500000
      vertex 15.500000 -34.000000 1.500000
    endloop
  endfacet
  facet normal 1.000000 0.000000 0.000000
    outer loop
      vertex 10.500000 -34.000000 29.500000
      vertex 10.500000 -34.000000 1.500000
      vertex 10.500000 -27.000000 1.500000
    endloop
  endfacet
  facet normal 1.000000 0.000000 0.000000
    outer loop
      vertex 10.500000 -31.500000 29.500000
      vertex 10.500000 -34.000000 29.500000
      vertex 10.500000 -27.000000 1.500000
    endloop
  endfacet
  facet normal 1.000000 0.000000 0.000000
    outer loop
      vertex 10.500000 -27.000000 29.500000
      vertex 10.500000 -31.500000 29.500000
      vertex 10.500000 -27.000000 1.500000
    endloop
  endfacet
  facet normal 0.000000 1.000000 0.000000
    outer loop
      vertex 10.500000 -27.000000 29.500000
      vertex 10.500000 -27.000000 1.500000
      vertex -10.500000 -27.000000 29.500000
    endloop
  endfacet
  facet normal 0.000000 1.000000 0.000000
    outer loop
      vertex -10.500000 -27.000000 29.500000
      vertex 10.500000 -27.000000 1.500000
      vertex -10.500000 -27.000000 1.500000
    endloop
  endfacet
  facet normal 0.000000 0.000000 1.000000
    outer loop
      vertex -15.500000 -27.000000 1.500000
      vertex -15.500000 -34.000000 1.500000
      vertex -10.500000 -34.000000 1.500000
    endloop
  endfacet
  facet normal 0.000000 0.000000 1.000000
    outer loop
      vertex -10.500000 -27.000000 1.500000
      vertex -15.500000 -27.000000 1.500000
      vertex -10.500000 -34.000000 1.500000
    endloop
  endfacet
  facet normal -1.000000 0.000000 0.000000
    outer loop
      vertex -10.500000 -34.000000 1.500000
      vertex -10.500000 -34.000000 29.500000
      vertex -10.500000 -27.000000 1.500000
    endloop
  endfacet
  facet normal -1.000000 0.000000 0.000000
    outer loop
      vertex -10.500000 -27.000000 1.500000
      vertex -10.500000 -34.000000 29.500000
      vertex -10.500000 -31.500000 29.500000
    endloop
  endfacet
  facet normal -1.000000 0.000000 0.000000
    outer loop
      vertex -10.500000 -27.000000 1.500000
      vertex -10.500000 -31.500000 29.500000
      vertex -10.500000 -27.000000 29.500000
    endloop
  endfacet
  facet normal -1.000000 0.000000 0.000000
    outer loop
      vertex -15.500000 -41.000000 1.500000
      vertex -15.500000 -41.000000 44.500000
      vertex -15.500000 -34.000000 1.500000
    endloop
  endfacet
  facet normal -1.000000 0.000000 0.000000
    outer loop
      vertex -15.500000 -34.000000 1.500000
      vertex -15.500000 -41.000000 44.500000
      vertex -15.500000 -34.000000 44.500000
    endloop
  endfacet
  facet normal 0.000000 1.000000 0.000000
    outer loop
      vertex -15.500000 -34.000000 1.500000
      vertex -15.500000 -34.000000 44.500000
      vertex -10.500000 -34.000000 1.500000
    endloop
  endfacet
  facet normal 0.000000 1.000000 0.000000
    outer loop
      vertex -10.500000 -34.000000 29.500000
      vertex -15.500000 -34.000000 44.500000
      vertex 15.500000 -34.000000 44.500000
    endloop
  endfacet
  facet normal 0.000000 1.000000 0.000000
    outer loop
      vertex 10.500000 -34.000000 1.500000
      vertex 15.500000 -34.000000 44.500000
      vertex 15.500000 -34.000000 1.500000
    endloop
  endfacet
  facet normal 0.000000 1.000000 0.000000
    outer loop
      vertex 10.500000 -34.000000 29.500000
      vertex 15.500000 -34.000000 44.500000
      vertex 10.500000 -34.000000 1.500000
    endloop
  endfacet
  facet normal 0.000000 1.000000 0.000000
    outer loop
      vertex -10.500000 -34.000000 1.500000
      vertex -15.500000 -34.000000 44.500000
      vertex -10.500000 -34.000000 29.500000
    endloop
  endfacet
  facet normal 0.000000 1.000000 0.000000
    outer loop
      vertex -10.500000 -34.000000 29.500000
      vertex 15.500000 -34.000000 44.500000
      vertex 10.500000 -34.000000 29.500000
    endloop
  endfacet
  facet normal 0.000000 0.000000 1.000000
    outer loop
      vertex -15.500000 -34.000000 44.500000
      vertex -15.500000 -41.000000 44.500000
      vertex 15.500000 -41.000000 44.500000
    endloop
  endfacet
  facet normal 0.000000 0.000000 1.000000
    outer loop
      vertex 15.500000 -34.000000 44.500000
      vertex -15.500000 -34.000000 44.500000
      vertex 15.500000 -41.000000 44.500000
    endloop
  endfacet
  facet normal 1.000000 0.000000 0.000000
    outer loop
      vertex 15.500000 -41.000000 44.500000
      vertex 15.500000 -41.000000 1.500000
      vertex 15.500000 -34.000000 1.500000
    endloop
  endfacet
  facet normal 1.000000 0.000000 0.000000
    outer loop
      vertex 15.500000 -34.000000 44.500000
      vertex 15.500000 -41.000000 44.500000
      vertex 15.500000 -34.000000 1.500000
    endloop
  endfacet
  facet normal 0.000000 -1.000000 0.000000
    outer loop
      vertex 46.000000 -2.250000 2.000000
      vertex 16.000000 -2.250000 1.500000
      vertex 49.000000 -2.250000 1.500000
    endloop
  endfacet
  facet normal 0.000000 -1.000000 0.000000
    outer loop
      vertex 32.000000 -2.250000 2.000000
      vertex 32.000000 -2.250000 21.500000
      vertex 16.000000 -2.250000 21.500000
    endloop
  endfacet
  facet normal 0.000000 -1.000000 0.000000
    outer loop
      vertex 49.000000 -2.250000 21.500000
      vertex 46.000000 -2.250000 21.500000
      vertex 49.000000 -2.250000 1.500000
    endloop
  endfacet
  facet normal 0.000000 -1.000000 0.000000
    outer loop
      vertex 32.000000 -2.250000 2.000000
      vertex 16.000000 -2.250000 1.500000
      vertex 46.000000 -2.250000 2.000000
    endloop
  endfacet
  facet normal 0.000000 -1.000000 0.000000
    outer loop
      vertex 16.000000 -2.250000 21.500000
      vertex 16.000000 -2.250000 1.500000
      vertex 32.000000 -2.250000 2.000000
    endloop
  endfacet
  facet normal 0.000000 -1.000000 0.000000
    outer loop
      vertex 46.000000 -2.250000 21.500000
      vertex 46.000000 -2.250000 2.000000
      vertex 49.000000 -2.250000 1.500000
    endloop
  endfacet
  facet normal 0.000000 0.000000 1.000000
    outer loop
      vertex 46.000000 26.250000 21.500000
      vertex 46.000000 -2.250000 21.500000
      vertex 49.000000 -2.250000 21.500000
    endloop
  endfacet
  facet normal 0.000000 0.000000 1.000000
    outer loop
      vertex 49.000000 26.250000 21.500000
      vertex 46.000000 26.250000 21.500000
      vertex 49.000000 -2.250000 21.500000
    endloop
  endfacet
  facet normal 0.000000 1.000000 0.000000
    outer loop
      vertex 46.000000 26.250000 1.500000
      vertex 46.000000 26.250000 21.500000
      vertex 49.000000 26.250000 1.500000
    endloop
  endfacet
  facet normal 0.000000 1.000000 0.000000
    outer loop
      vertex 49.000000 26.250000 1.500000
      vertex 46.000000 26.250000 21.500000
      vertex 49.000000 26.250000 21.500000
    endloop
  endfacet
  facet normal 0.000000 0.000000 1.000000
    outer loop
      vertex 46.000000 27.000000 1.500000
      vertex 46.000000 26.250000 1.500000
      vertex 49.000000 26.250000 1.500000
    endloop
  endfacet
  facet normal 0.000000 0.000000 1.000000
    outer loop
      vertex 49.000000 27.000000 1.500000
      vertex 46.000000 27.000000 1.500000
      vertex 49.000000 26.250000 1.500000
    endloop
  endfacet
  facet normal -1.000000 0.000000 0.000000
    outer loop
      vertex 46.000000 26.250000 21.500000
      vertex 46.000000 26.250000 1.500000
      vertex 46.000000 -2.250000 21.500000
    endloop
  endfacet
  facet normal -1.000000 0.000000 0.000000
    outer loop
      vertex 46.000000 27.000000 -0.500000
      vertex 46.000000 26.250000 1.500000
      vertex 46.000000 27.000000 1.500000
    endloop
  endfacet
  facet normal -1.000000 0.000000 0.000000
    outer loop
      vertex 46.000000 -2.250000 21.500000
      vertex 46.000000 26.250000 1.500000
      vertex 46.000000 27.000000 -0.500000
    endloop
  endfacet
  facet normal -1.000000 0.000000 0.000000
    outer loop
      vertex 46.000000 9.000000 2.000000
      vertex 46.000000 27.000000 -0.500000
      vertex 46.000000 9.000000 -0.500000
    endloop
  endfacet
  facet normal -1.000000 0.000000 0.000000
    outer loop
      vertex 46.000000 -2.250000 21.500000
      vertex 46.000000 27.000000 -0.500000
      vertex 46.000000 9.000000 2.000000
    endloop
  endfacet
  facet normal -1.000000 0.000000 0.000000
    outer loop
      vertex 46.000000 -2.250000 2.000000
      vertex 46.000000 -2.250000 21.500000
      vertex 46.000000 9.000000 2.000000
    endloop
  endfacet
  facet normal 0.000000 0.000000 1.000000
    outer loop
      vertex 46.000000 9.000000 -0.500000
      vertex 46.000000 27.000000 -0.500000
      vertex 32.000000 27.000000 -0.500000
    endloop
  endfacet
  facet normal 0.000000 0.000000 1.000000
    outer loop
      vertex 32.000000 9.000000 -0.500000
      vertex 46.000000 9.000000 -0.500000
      vertex 32.000000 27.000000 -0.500000
    endloop
  endfacet
  facet normal 1.000000 0.000000 0.000000
    outer loop
      vertex 32.000000 9.000000 2.000000
      vertex 32.000000 9.000000 -0.500000
      vertex 32.000000 27.000000 -0.500000
    endloop
  endfacet
  facet normal 1.000000 0.000000 0.000000
    outer loop
      vertex 32.000000 26.250000 1.500000
      vertex 32.000000 9.000000 2.000000
      vertex 32.000000 27.000000 -0.500000
    endloop
  endfacet
  facet normal 1.000000 0.000000 0.000000
    outer loop
      vertex 32.000000 27.000000 1.500000
      vertex 32.000000 26.250000 1.500000
      vertex 32.000000 27.000000 -0.500000
    endloop
  endfacet
  facet normal 1.000000 0.000000 0.000000
    outer loop
      vertex 32.000000 -2.250000 21.500000
      vertex 32.000000 9.000000 2.000000
      vertex 32.000000 26.250000 21.500000
    endloop
  endfacet
  facet normal 1.000000 0.000000 0.000000
    outer loop
      vertex 32.000000 26.250000 1.500000
      vertex 32.000000 26.250000 21.500000
      vertex 32.000000 9.000000 2.000000
    endloop
  endfacet
  facet normal 1.000000 0.000000 0.000000
    outer loop
      vertex 32.000000 -2.250000 2.000000
      vertex 32.000000 9.000000 2.000000
      vertex 32.000000 -2.250000 21.500000
    endloop
  endfacet
  facet normal 0.000000 -1.000000 0.000000
    outer loop
      vertex -15.500000 31.000000 7.500000
      vertex -15.500000 31.000000 1.500000
      vertex 15.500000 31.000000 1.500000
    endloop
  endfacet
  facet normal 0.000000 -1.000000 0.000000
    outer loop
      vertex 15.500000 31.000000 7.500000
      vertex -15.500000 31.000000 7.500000
      vertex 15.500000 31.000000 1.500000
    endloop
  endfacet
  facet normal 1.000000 0.000000 0.000000
    outer loop
      vertex 15.500000 31.000000 7.500000
      vertex 15.500000 31.000000 1.500000
      vertex 15.500000 41.000000 1.500000
    endloop
  endfacet
  facet normal 1.000000 0.000000 0.000000
    outer loop
      vertex 15.500000 41.000000 7.500000
      vertex 15.500000 31.000000 7.500000
      vertex 15.500000 41.000000 1.500000
    endloop
  endfacet
  facet normal 0.000000 0.000000 1.000000
    outer loop
      vertex -15.500000 41.000000 7.500000
      vertex -15.500000 31.000000 7.500000
      vertex 15.500000 31.000000 7.500000
    endloop
  endfacet
  facet normal 0.000000 0.000000 1.000000
    outer loop
      vertex 15.500000 41.000000 7.500000
      vertex -15.500000 41.000000 7.500000
      vertex 15.500000 31.000000 7.500000
    endloop
  endfacet
  facet normal -1.000000 0.000000 0.000000
    outer loop
      vertex -15.500000 31.000000 1.500000
      vertex -15.500000 31.000000 7.500000
      vertex -15.500000 41.000000 1.500000
    endloop
  endfacet
  facet normal -1.000000 0.000000 0.000000
    outer loop
      vertex -15.500000 41.000000 1.500000
      vertex -15.500000 31.000000 7.500000
      vertex -15.500000 41.000000 7.500000
    endloop
  endfacet
  facet normal 0.000000 0.000000 1.000000
    outer loop
      vertex 16.000000 26.250000 21.500000
      vertex 16.000000 -2.250000 21.500000
      vertex 32.000000 -2.250000 21.500000
    endloop
  endfacet
  facet normal 0.000000 0.000000 1.000000
    outer loop
      vertex 32.000000 26.250000 21.500000
      vertex 16.000000 26.250000 21.500000
      vertex 32.000000 -2.250000 21.500000
    endloop
  endfacet
  facet normal 0.000000 0.000000 1.000000
    outer loop
      vertex -10.500000 -31.500000 29.500000
      vertex -10.500000 -34.000000 29.500000
      vertex 10.500000 -34.000000 29.500000
    endloop
  endfacet
  facet normal 0.000000 0.000000 1.000000
    outer loop
      vertex 10.500000 -31.500000 29.500000
      vertex -10.500000 -31.500000 29.500000
      vertex 10.500000 -34.000000 29.500000
    endloop
  endfacet
  facet normal 0.000000 0.000000 1.000000
    outer loop
      vertex -10.500000 -27.000000 29.500000
      vertex -10.500000 -31.500000 29.500000
      vertex 10.500000 -31.500000 29.500000
    endloop
  endfacet
  facet normal 0.000000 0.000000 1.000000
    outer loop
      vertex 10.500000 -27.000000 29.500000
      vertex -10.500000 -27.000000 29.500000
      vertex 10.500000 -31.500000 29.500000
    endloop
  endfacet
  facet normal 0.000000 0.000000 1.000000
    outer loop
      vertex 46.000000 -2.250000 2.000000
      vertex 46.000000 9.000000 2.000000
      vertex 32.000000 9.000000 2.000000
    endloop
  endfacet
  facet normal 0.000000 0.000000 1.000000
    outer loop
      vertex 32.000000 -2.250000 2.000000
      vertex 46.000000 -2.250000 2.000000
      vertex 32.000000 9.000000 2.000000
    endloop
  endfacet
  facet normal 0.000000 1.000000 0.000000
    outer loop
      vertex 46.000000 9.000000 2.000000
      vertex 46.000000 9.000000 -0.500000
      vertex 32.000000 9.000000 2.000000
    endloop
  endfacet
  facet normal 0.000000 1.000000 0.000000
    outer loop
      vertex 32.000000 9.000000 2.000000
      vertex 46.000000 9.000000 -0.500000
      vertex 32.000000 9.000000 -0.500000
    endloop
  endfacet
endsolid OpenSCAD_Model
