solid OpenSCAD_Model
  facet normal -1.000000 0.000000 0.000000
    outer loop
      vertex 0.000000 -37.000000 7.000000
      vertex 0.000000 -37.000000 -3.000000
      vertex 0.000000 -58.000000 7.000000
    endloop
  endfacet
  facet normal -1.000000 0.000000 0.000000
    outer loop
      vertex 0.000000 -58.000000 7.000000
      vertex 0.000000 -37.000000 -3.000000
      vertex 0.000000 -58.000000 -3.000000
    endloop
  endfacet
  facet normal 0.000000 1.000000 0.000000
    outer loop
      vertex 0.000000 -37.000000 7.000000
      vertex 2.000000 -37.000000 7.000000
      vertex 0.000000 -37.000000 -3.000000
    endloop
  endfacet
  facet normal 0.000000 1.000000 0.000000
    outer loop
      vertex 0.000000 -37.000000 -3.000000
      vertex 2.000000 -37.000000 7.000000
      vertex 2.000000 -37.000000 3.000000
    endloop
  endfacet
  facet normal 0.000000 1.000000 0.000000
    outer loop
      vertex 0.000000 -37.000000 -3.000000
      vertex 2.000000 -37.000000 3.000000
      vertex 16.000000 -37.000000 3.000000
    endloop
  endfacet
  facet normal 0.000000 1.000000 0.000000
    outer loop
      vertex 16.000000 -37.000000 3.000000
      vertex 16.000000 -37.000000 7.000000
      vertex 32.666667 -37.000000 7.000000
    endloop
  endfacet
  facet normal 0.000000 1.000000 0.000000
    outer loop
      vertex 16.000000 -37.000000 3.000000
      vertex 32.666667 -37.000000 7.000000
      vertex 0.000000 -37.000000 -3.000000
    endloop
  endfacet
  facet normal 0.000000 1.000000 0.000000
    outer loop
      vertex 0.000000 -37.000000 -3.000000
      vertex 32.666667 -37.000000 7.000000
      vertex 32.666667 -37.000000 -3.000000
    endloop
  endfacet
  facet normal 0.000000 0.000000 1.000000
    outer loop
      vertex 0.000000 -58.000000 7.000000
      vertex 2.000000 -58.000000 7.000000
      vertex 2.000000 -37.000000 7.000000
    endloop
  endfacet
  facet normal 0.000000 0.000000 1.000000
    outer loop
      vertex 0.000000 -37.000000 7.000000
      vertex 0.000000 -58.000000 7.000000
      vertex 2.000000 -37.000000 7.000000
    endloop
  endfacet
  facet normal 0.000000 -1.000000 0.000000
    outer loop
      vertex 2.000000 -58.000000 7.000000
      vertex 0.000000 -58.000000 7.000000
      vertex 0.000000 -58.000000 -3.000000
    endloop
  endfacet
  facet normal 0.000000 -1.000000 0.000000
    outer loop
      vertex 2.000000 -58.000000 0.500000
      vertex 2.000000 -58.000000 7.000000
      vertex 0.000000 -58.000000 -3.000000
    endloop
  endfacet
  facet normal 0.000000 -1.000000 0.000000
    outer loop
      vertex 32.666667 -58.000000 7.000000
      vertex 16.000000 -58.000000 7.000000
      vertex 32.666667 -58.000000 -3.000000
    endloop
  endfacet
  facet normal 0.000000 -1.000000 0.000000
    outer loop
      vertex 32.666667 -58.000000 -3.000000
      vertex 16.000000 -58.000000 0.500000
      vertex 0.000000 -58.000000 -3.000000
    endloop
  endfacet
  facet normal 0.000000 -1.000000 0.000000
    outer loop
      vertex 16.000000 -58.000000 0.500000
      vertex 2.000000 -58.000000 0.500000
      vertex 0.000000 -58.000000 -3.000000
    endloop
  endfacet
  facet normal 0.000000 -1.000000 0.000000
    outer loop
      vertex 16.000000 -58.000000 7.000000
      vertex 16.000000 -58.000000 0.500000
      vertex 32.666667 -58.000000 -3.000000
    endloop
  endfacet
  facet normal 0.000000 -0.000000 -1.000000
    outer loop
      vertex 0.000000 -37.000000 -3.000000
      vertex 32.666667 -37.000000 -3.000000
      vertex 0.000000 -58.000000 -3.000000
    endloop
  endfacet
  facet normal 0.000000 -0.000000 -1.000000
    outer loop
      vertex 0.000000 -58.000000 -3.000000
      vertex 32.666667 -37.000000 -3.000000
      vertex 32.666667 -58.000000 -3.000000
    endloop
  endfacet
  facet normal 1.000000 0.000000 0.000000
    outer loop
      vertex 32.666667 -37.000000 -3.000000
      vertex 32.666667 -37.000000 7.000000
      vertex 32.666667 -58.000000 7.000000
    endloop
  endfacet
  facet normal 1.000000 0.000000 0.000000
    outer loop
      vertex 32.666667 -58.000000 -3.000000
      vertex 32.666667 -37.000000 -3.000000
      vertex 32.666667 -58.000000 7.000000
    endloop
  endfacet
  facet normal 0.000000 0.000000 1.000000
    outer loop
      vertex 16.000000 -58.000000 7.000000
      vertex 32.666667 -58.000000 7.000000
      vertex 32.666667 -37.000000 7.000000
    endloop
  endfacet
  facet normal 0.000000 0.000000 1.000000
    outer loop
      vertex 16.000000 -37.000000 7.000000
      vertex 16.000000 -58.000000 7.000000
      vertex 32.666667 -37.000000 7.000000
    endloop
  endfacet
  facet normal -1.000000 0.000000 0.000000
    outer loop
      vertex 16.000000 -52.000000 3.000000
      vertex 16.000000 -52.000000 0.500000
      vertex 16.000000 -58.000000 0.500000
    endloop
  endfacet
  facet normal -1.000000 0.000000 0.000000
    outer loop
      vertex 16.000000 -52.000000 3.000000
      vertex 16.000000 -58.000000 0.500000
      vertex 16.000000 -58.000000 7.000000
    endloop
  endfacet
  facet normal -1.000000 0.000000 0.000000
    outer loop
      vertex 16.000000 -52.000000 3.000000
      vertex 16.000000 -58.000000 7.000000
      vertex 16.000000 -37.000000 3.000000
    endloop
  endfacet
  facet normal -1.000000 0.000000 0.000000
    outer loop
      vertex 16.000000 -58.000000 7.000000
      vertex 16.000000 -37.000000 7.000000
      vertex 16.000000 -37.000000 3.000000
    endloop
  endfacet
  facet normal 0.000000 0.000000 1.000000
    outer loop
      vertex 2.000000 -52.000000 3.000000
      vertex 16.000000 -52.000000 3.000000
      vertex 16.000000 -37.000000 3.000000
    endloop
  endfacet
  facet normal 0.000000 0.000000 1.000000
    outer loop
      vertex 2.000000 -37.000000 3.000000
      vertex 2.000000 -52.000000 3.000000
      vertex 16.000000 -37.000000 3.000000
    endloop
  endfacet
  facet normal 1.000000 0.000000 0.000000
    outer loop
      vertex 2.000000 -58.000000 7.000000
      vertex 2.000000 -58.000000 0.500000
      vertex 2.000000 -52.000000 0.500000
    endloop
  endfacet
  facet normal 1.000000 0.000000 0.000000
    outer loop
      vertex 2.000000 -37.000000 3.000000
      vertex 2.000000 -58.000000 7.000000
      vertex 2.000000 -52.000000 3.000000
    endloop
  endfacet
  facet normal 1.000000 0.000000 0.000000
    outer loop
      vertex 2.000000 -52.000000 3.000000
      vertex 2.000000 -58.000000 7.000000
      vertex 2.000000 -52.000000 0.500000
    endloop
  endfacet
  facet normal 1.000000 0.000000 0.000000
    outer loop
      vertex 2.000000 -37.000000 7.000000
      vertex 2.000000 -58.000000 7.000000
      vertex 2.000000 -37.000000 3.000000
    endloop
  endfacet
  facet normal 0.000000 0.000000 1.000000
    outer loop
      vertex 2.000000 -58.000000 0.500000
      vertex 16.000000 -58.000000 0.500000
      vertex 16.000000 -52.000000 0.500000
    endloop
  endfacet
  facet normal 0.000000 0.000000 1.000000
    outer loop
      vertex 2.000000 -52.000000 0.500000
      vertex 2.000000 -58.000000 0.500000
      vertex 16.000000 -52.000000 0.500000
    endloop
  endfacet
  facet normal 0.000000 -1.000000 0.000000
    outer loop
      vertex 2.000000 -52.000000 0.500000
      vertex 16.000000 -52.000000 0.500000
      vertex 16.000000 -52.000000 3.000000
    endloop
  endfacet
  facet normal 0.000000 -1.000000 0.000000
    outer loop
      vertex 2.000000 -52.000000 3.000000
      vertex 2.000000 -52.000000 0.500000
      vertex 16.000000 -52.000000 3.000000
    endloop
  endfacet
endsolid OpenSCAD_Model
